<?xml version="1.0"?>
<svg xmlns="http://www.w3.org/2000/svg" height="512px" viewBox="0 -17 512 512" width="512px"><path d="m503.644531 376.960938-188.5-342c-11.890625-21.566407-34.550781-34.960938-59.144531-34.960938s-47.253906 13.394531-59.140625 34.960938l-188.5 342c-5.46875 9.917968-8.359375 21.167968-8.359375 32.539062 0 37.21875 30.28125 67.5 67.5 67.5h377c37.21875 0 67.5-30.28125 67.5-67.5 0-11.371094-2.890625-22.621094-8.355469-32.539062zm-59.144531 85.039062h-377c-28.949219 0-52.5-23.550781-52.5-52.5 0-8.84375 2.246094-17.59375 6.496094-25.300781l188.5-342c9.246094-16.777344 26.875-27.199219 46.003906-27.199219s36.757812 10.421875 46.007812 27.199219l188.5 342c4.246094 7.707031 6.492188 16.457031 6.492188 25.300781 0 28.949219-23.550781 52.5-52.5 52.5zm0 0" fill="#FFFFFF"/><path d="m288.871094 49.441406c-6.613282-11.992187-19.207032-19.441406-32.871094-19.441406s-26.257812 7.449219-32.867188 19.441406l-87.011718 157.863282c-2 3.628906-.679688 8.1875 2.949218 10.1875 3.625 2 8.1875.679687 10.1875-2.945313l87.007813-157.863281c3.972656-7.207032 11.535156-11.683594 19.734375-11.683594s15.761719 4.476562 19.734375 11.683594l188.496094 342c1.839843 3.328125 2.769531 6.96875 2.769531 10.816406 0 12.40625-10.09375 22.5-22.5 22.5h-377c-12.40625 0-22.5-10.09375-22.5-22.5 0-3.847656.929688-7.484375 2.765625-10.816406l87.011719-157.863282c2-3.628906.679687-8.1875-2.949219-10.1875s-8.1875-.679687-10.1875 2.945313l-87.011719 157.867187c-3.070312 5.570313-4.628906 11.648438-4.628906 18.054688 0 20.679688 16.820312 37.5 37.5 37.5h377c20.679688 0 37.5-16.820312 37.5-37.5 0-6.410156-1.558594-12.484375-4.632812-18.058594zm0 0" fill="#FFFFFF"/><path d="m256 387c12.40625 0 22.5-10.09375 22.5-22.5s-10.09375-22.5-22.5-22.5-22.5 10.09375-22.5 22.5 10.09375 22.5 22.5 22.5zm0-30c4.136719 0 7.5 3.363281 7.5 7.5s-3.363281 7.5-7.5 7.5-7.5-3.363281-7.5-7.5 3.363281-7.5 7.5-7.5zm0 0" fill="#FFFFFF"/><path d="m256 327c12.40625 0 22.5-10.09375 22.5-22.5v-120c0-12.40625-10.09375-22.5-22.5-22.5s-22.5 10.09375-22.5 22.5v120c0 12.40625 10.09375 22.5 22.5 22.5zm-7.5-142.5c0-4.136719 3.363281-7.5 7.5-7.5s7.5 3.363281 7.5 7.5v120c0 4.136719-3.363281 7.5-7.5 7.5s-7.5-3.363281-7.5-7.5zm0 0" fill="#FFFFFF"/></svg>
